<?xml version="1.0" encoding="utf-8"?>
<!-- Generator: Adobe Illustrator 22.1.0, SVG Export Plug-In . SVG Version: 6.00 Build 0)  -->
<svg version="1.1" id="Layer_1" xmlns="http://www.w3.org/2000/svg" xmlns:xlink="http://www.w3.org/1999/xlink" x="0px" y="0px"
	 viewBox="0 0 500 500" style="enable-background:new 0 0 500 500;" xml:space="preserve">
<style type="text/css">
	.st0{fill:#FFFFFF;}
</style>
<g>
	<path class="st0" d="M412.5,259.2c0,90.7-73.5,164.2-164.2,164.2S84.2,349.9,84.2,259.2c0-15.3,2.1-30,6-44.1
		c-8.7-25.7,11.9-161.5,11.9-161.5c1.7-11.2,54.3,5.1,95.7,49.4c15.9-5.2,32.9-8,50.6-8c18,0,35.4,2.9,51.6,8.3
		c41.4-44.5,94.3-60.9,96-49.7c0,0,21.8,143.5,11.1,163.4C410.6,230.5,412.5,244.6,412.5,259.2z M162.4,269.5
		c19,6.3,41.6-9.8,41.6-9.8s-8.3-26.4-27.4-32.8s-47.7,7.8-47.7,7.8S143.3,263.1,162.4,269.5z M368.5,234.7c0,0-28.6-14.1-47.7-7.8
		c-19,6.3-27.4,32.8-27.4,32.8s22.5,16.2,41.6,9.8C354.1,263.1,368.5,234.7,368.5,234.7z M256.3,313.4l11.1-19.2
		c1.3-2.3-0.3-5.1-3-5.1h-25.2c-2.6,0-4.3,2.8-3,5.1l11.1,19.2C249.3,316.9,254.3,316.9,256.3,313.4z"/>
</g>
<g id="left-whiskers">
	<g>
		<g>
			<path class="st0" d="M10.8,310.5c41.9-2.2,83.8-4.5,125.7-6.7c5.9-0.3,11.8-0.6,17.8-0.9c5.2-0.3,5.2-8.4,0-8.1
				c-41.9,2.2-83.8,4.5-125.7,6.7c-5.9,0.3-11.8,0.6-17.8,0.9C5.6,302.6,5.6,310.7,10.8,310.5L10.8,310.5z"/>
		</g>
	</g>
	<g>
		<g>
			<path class="st0" d="M19.8,341.6c41.6-5.5,83.2-10.9,124.8-16.4c5.9-0.8,11.8-1.5,17.6-2.3c5.1-0.7,5.2-8.8,0-8.1
				c-41.6,5.5-83.2,10.9-124.8,16.4c-5.9,0.8-11.8,1.5-17.6,2.3C14.8,334.2,14.7,342.3,19.8,341.6L19.8,341.6z"/>
		</g>
	</g>
	<g>
		<g>
			<path class="st0" d="M4.8,372.7c41-8.7,82.1-17.5,123.1-26.2c5.8-1.2,11.6-2.5,17.4-3.7c5.1-1.1,2.9-8.9-2.2-7.8
				c-41,8.7-82.1,17.5-123.1,26.2c-5.8,1.2-11.6,2.5-17.4,3.7C-2.5,366-0.3,373.8,4.8,372.7L4.8,372.7z"/>
		</g>
	</g>
</g>
<g id="right-whiskers">
	<g>
		<g>
			<path class="st0" d="M490.3,302.4c-41.9-2.2-83.8-4.5-125.7-6.7c-5.9-0.3-11.8-0.6-17.8-0.9c-5.2-0.3-5.2,7.8,0,8.1
				c41.9,2.2,83.8,4.5,125.7,6.7c5.9,0.3,11.8,0.6,17.8,0.9C495.6,310.7,495.5,302.6,490.3,302.4L490.3,302.4z"/>
		</g>
	</g>
	<g>
		<g>
			<path class="st0" d="M481.3,333.5c-41.6-5.5-83.2-10.9-124.8-16.4c-5.9-0.8-11.8-1.5-17.6-2.3c-5.2-0.7-5.1,7.4,0,8.1
				c41.6,5.5,83.2,10.9,124.8,16.4c5.9,0.8,11.8,1.5,17.6,2.3C486.4,342.3,486.4,334.2,481.3,333.5L481.3,333.5z"/>
		</g>
	</g>
	<g>
		<g>
			<path class="st0" d="M498.5,364.9c-41-8.7-82.1-17.5-123.1-26.2c-5.8-1.2-11.6-2.5-17.4-3.7c-5.1-1.1-7.3,6.7-2.2,7.8
				c41,8.7,82.1,17.5,123.1,26.2c5.8,1.2,11.6,2.5,17.4,3.7C501.4,373.8,503.6,366,498.5,364.9L498.5,364.9z"/>
		</g>
	</g>
</g>
</svg>
