<?xml version="1.0" encoding="utf-8"?>
<!-- Generator: Adobe Illustrator 22.1.0, SVG Export Plug-In . SVG Version: 6.00 Build 0)  -->
<svg version="1.1" id="nose_copy" xmlns="http://www.w3.org/2000/svg" xmlns:xlink="http://www.w3.org/1999/xlink" x="0px" y="0px"
	 viewBox="0 0 500 500" style="enable-background:new 0 0 500 500;" xml:space="preserve">
<style type="text/css">
	.st0{fill:#FFFFFF;}
</style>
<g>
	<path class="st0" d="M455.5,151.3C417.9,98,369.5,66.4,343,76.7C315.5,60.4,283.8,51,250,51c-33.6,0-65.2,9.3-92.6,25.5
		c-26.6-9.6-74.6,21.9-111.9,74.8C5.3,208.5-7.1,269,17.7,286.4c11,7.7,27.4,5.7,45.9-3.8c3.9,25,12.2,48.4,24.1,69.3
		c-0.4,2.7-0.7,5.3-0.7,8c0,49.2,73,89,163,89s163-39.8,163-89c0-2.7-0.2-5.4-0.7-8c12-21.1,20.3-44.6,24.2-69.8
		c18.8,10,35.6,12.2,46.8,4.3C508.1,269,495.7,208.5,455.5,151.3z M200,249.5c-7.2,0-13-12.1-13-27s5.8-27,13-27s13,12.1,13,27
		S207.2,249.5,200,249.5z M251,347h-2c-13.2,0-24-10.8-24-24c0-6.6,5.4-12,12-12h26c6.6,0,12,5.4,12,12C275,336.2,264.2,347,251,347
		z M300,249.5c-7.2,0-13-12.1-13-27s5.8-27,13-27s13,12.1,13,27S307.2,249.5,300,249.5z"/>
</g>
</svg>
