<?xml version="1.0" encoding="utf-8"?>
<!-- Generator: Adobe Illustrator 22.1.0, SVG Export Plug-In . SVG Version: 6.00 Build 0)  -->
<svg version="1.1" id="Layer_1" xmlns="http://www.w3.org/2000/svg" xmlns:xlink="http://www.w3.org/1999/xlink" x="0px" y="0px"
	 viewBox="0 0 500 500" style="enable-background:new 0 0 500 500;" xml:space="preserve">
<style type="text/css">
	.st0{fill:#FFFFFF;}
</style>
<g>
	<path class="st0" d="M447,169c-4.6,0-9,0.7-13.2,1.9C403.1,99.8,332.4,50,250,50c-30.3,0-59,6.7-84.7,18.8
		c-25.2-20.1-53.8-44-58.4-52.9c-17.9-34.2-22.7,97.3-23.4,123.3c-6.7,10-12.4,20.6-17.2,31.7C62,169.7,57.6,169,53,169
		c-25.4,0-46,20.6-46,46c0,24.5,19.2,44.5,43.3,45.9C56,366.3,143.2,450,250,450s194-83.7,199.7-189.1c24.1-1.4,43.3-21.4,43.3-45.9
		C493,189.6,472.4,169,447,169z M185,200c16.6,0,30,13.4,30,30s-13.4,30-30,30s-30-13.4-30-30S168.4,200,185,200z M159.1,324.5
		h176.8C287,373.4,208,373.4,159.1,324.5z M315,260c-16.6,0-30-13.4-30-30s13.4-30,30-30s30,13.4,30,30S331.6,260,315,260z"/>
</g>
</svg>
